<svg width="100%" height="100%" viewBox="0 0 20 20" xmlns="http://www.w3.org/2000/svg" style="background-color: #f0f0f0; image-rendering: pixelated;">
  <!-- 
    Pixel Art Sad Man
    Each rect represents one "pixel" on a 20x20 grid.
  -->

  <!-- Hair (Dark Brown: #4a2a15) -->
  <rect x="6" y="2" width="8" height="1" fill="#4a2a15"/>
  <rect x="5" y="3" width="10" height="1" fill="#4a2a15"/>
  <rect x="5" y="4" width="1" height="2" fill="#4a2a15"/>
  <rect x="14" y="4" width="1" height="2" fill="#4a2a15"/>
  
  <!-- Face (Skin Tone: #f2d2b6) -->
  <rect x="6" y="4" width="8" height="6" fill="#f2d2b6"/>
  <rect x="5" y="5" width="1" height="4" fill="#f2d2b6"/>
  <rect x="14" y="5" width="1" height="4" fill="#f2d2b6"/>

  <!-- Eyes (Black: #000000) -->
  <rect x="8" y="6" width="1" height="1" fill="#000000"/>
  <rect x="11" y="6" width="1" height="1" fill="#000000"/>

  <!-- Frown (Black: #000000) -->
  <rect x="8" y="8" width="4" height="1" fill="#000000"/>
  <rect x="7" y="9" width="1" height="1" fill="#000000"/>
  <rect x="12" y="9" width="1" height="1" fill="#000000"/>

  <!-- Shirt (Blue: #3a5cc4) -->
  <rect x="5" y="10" width="10" height="4" fill="#3a5cc4"/>
  <rect x="4" y="11" width="1" height="3" fill="#3a5cc4"/>
  <rect x="15" y="11" width="1" height="3" fill="#3a5cc4"/>

  <!-- Neck -->
  <rect x="9" y="10" width="2" height="1" fill="#f2d2b6"/>

</svg>
